<?xml version="1.0" standalone="no"?>
<!DOCTYPE svg PUBLIC "-//W3C//DTD SVG 20010904//EN"
 "http://www.w3.org/TR/2001/REC-SVG-20010904/DTD/svg10.dtd">
<svg version="1.0" xmlns="http://www.w3.org/2000/svg"
 width="2880.000000pt" height="2880.000000pt" viewBox="0 0 2880.000000 2880.000000"
 preserveAspectRatio="xMidYMid meet">
<metadata>
Created by potrace 1.11, written by Peter Selinger 2001-2013
</metadata>
<g transform="translate(0.000000,2880.000000) scale(0.100000,-0.100000)"
fill="#000000" stroke="none">
<path d="M3685 18021 c-2 -2 -39 -5 -82 -7 -43 -2 -105 -5 -138 -8 -33 -3 -89
-8 -125 -11 -36 -2 -78 -7 -95 -10 -16 -3 -52 -7 -80 -11 -66 -7 -106 -12
-130 -17 -11 -3 -42 -8 -68 -11 -27 -4 -59 -10 -70 -12 -12 -3 -35 -6 -52 -8
-16 -2 -37 -6 -45 -9 -21 -8 -70 -18 -105 -23 -16 -3 -50 -11 -75 -18 -52 -16
-101 -29 -115 -30 -45 -7 -353 -111 -433 -147 -35 -16 -66 -29 -69 -29 -4 0
-48 -20 -100 -45 -51 -25 -95 -45 -97 -45 -2 0 -39 -20 -80 -45 -42 -25 -79
-45 -81 -45 -5 0 -150 -92 -177 -112 -9 -7 -26 -20 -39 -28 -168 -115 -357
-288 -532 -489 -25 -29 -153 -200 -184 -247 -62 -92 -133 -213 -133 -224 0 -6
-4 -10 -10 -10 -5 0 -10 -5 -10 -11 0 -6 -24 -58 -53 -117 -45 -90 -86 -182
-92 -202 -1 -3 -9 -23 -18 -44 -10 -22 -20 -51 -24 -65 -3 -13 -12 -36 -19
-50 -8 -14 -14 -33 -14 -42 0 -8 -5 -20 -12 -27 -7 -7 -9 -12 -6 -12 4 0 -2
-26 -13 -57 -19 -56 -84 -299 -94 -352 -3 -14 -7 -36 -10 -48 -3 -13 -7 -33
-10 -45 -3 -13 -8 -36 -10 -53 -3 -16 -10 -55 -16 -85 -5 -30 -12 -68 -14 -85
-1 -16 -6 -48 -9 -70 -3 -22 -8 -65 -12 -95 -3 -30 -8 -73 -10 -95 -9 -80 -12
-122 -18 -223 -3 -56 -7 -106 -10 -110 -2 -4 -4 -728 -3 -1607 l2 -1599 608
-1 c335 0 613 2 618 5 4 3 9 721 9 1617 1 886 4 1614 7 1617 3 3 7 29 9 58 6
126 33 345 59 473 3 14 7 37 10 53 3 15 11 45 17 67 5 22 12 51 14 65 3 14 8
34 11 45 4 11 8 25 9 30 5 28 77 229 99 278 13 32 25 59 25 62 1 8 70 135 113
207 92 155 356 439 438 470 11 4 19 11 19 17 0 5 8 12 18 15 19 7 43 21 87 51
17 12 44 27 60 35 17 8 32 17 35 20 3 3 16 10 30 16 14 7 50 23 80 38 137 64
453 164 541 171 14 1 30 4 35 7 5 3 32 9 59 13 71 10 86 13 120 18 59 10 111
17 165 22 30 3 71 7 90 10 104 13 449 25 451 16 1 -3 2 -453 3 -998 1 -878 -1
-993 -14 -994 -8 0 -465 0 -1015 -1 -550 0 -1002 -4 -1005 -8 -7 -11 -5 -1219
2 -1226 4 -3 462 -7 1019 -7 l1013 -2 3 -225 c2 -211 8 -359 16 -440 3 -19 7
-64 11 -100 6 -57 16 -121 30 -202 4 -21 33 -154 41 -188 2 -8 4 -15 5 -15 1
0 3 -11 6 -25 2 -14 11 -43 20 -65 9 -22 15 -41 14 -43 -1 -2 3 -17 10 -35 6
-18 21 -57 32 -87 28 -77 110 -251 128 -273 8 -10 15 -21 15 -25 1 -15 121
-186 170 -241 87 -98 298 -281 325 -281 5 0 15 -6 22 -13 27 -26 298 -155 298
-142 0 2 20 -4 45 -15 25 -11 45 -17 45 -15 0 2 21 -2 48 -10 46 -14 95 -24
139 -30 12 -2 34 -6 50 -9 62 -12 155 -17 293 -16 133 1 235 5 235 10 0 1 11
3 25 4 26 3 117 17 135 22 6 1 24 5 40 8 48 9 155 42 215 65 68 27 211 93 225
104 6 4 51 34 100 67 50 32 110 76 135 97 47 40 192 184 223 223 46 56 140
187 164 229 15 25 30 48 33 51 13 12 121 232 155 315 20 50 40 99 45 110 8 19
39 108 44 130 2 6 6 17 9 25 6 14 42 143 52 187 3 10 9 38 16 63 6 25 13 56
15 70 3 14 7 32 9 40 3 8 7 32 11 54 3 21 8 48 10 60 3 11 7 35 10 51 2 17 9
57 14 90 9 57 14 91 26 210 3 28 7 66 10 85 10 73 15 651 17 1970 l3 1364
1292 1 1293 0 -6 -80 c-3 -44 -7 -93 -9 -110 -3 -16 -8 -52 -11 -80 -4 -27
-13 -79 -20 -115 -8 -35 -11 -68 -9 -72 3 -4 1 -8 -3 -8 -5 0 -9 -10 -10 -22
-1 -13 -4 -32 -7 -43 -3 -11 -12 -44 -20 -73 -8 -29 -15 -56 -16 -60 -7 -24
-11 -34 -17 -49 -3 -10 -7 -23 -8 -28 -7 -30 -63 -159 -97 -225 -53 -102 -128
-218 -168 -260 -129 -139 -180 -187 -243 -230 -20 -14 -37 -28 -37 -32 0 -5
-4 -8 -9 -8 -5 0 -45 -22 -88 -48 -79 -50 -177 -98 -268 -133 -27 -11 -59 -24
-70 -29 -27 -12 -108 -38 -137 -44 -13 -2 -36 -9 -51 -15 -47 -18 -307 -75
-392 -86 -11 -1 -38 -5 -60 -9 -58 -10 -174 -23 -269 -31 -32 -2 -64 -9 -70
-14 -8 -7 -11 -180 -10 -623 l0 -613 159 -2 c87 -1 174 -4 194 -7 91 -14 109
-17 161 -27 30 -6 66 -14 80 -18 14 -5 45 -14 70 -22 25 -7 50 -15 55 -18 6
-3 12 -6 15 -6 30 -4 264 -108 280 -125 7 -7 39 -27 75 -45 100 -51 321 -246
425 -375 25 -30 47 -57 50 -60 3 -3 10 -12 15 -21 6 -9 29 -44 53 -77 23 -34
42 -66 42 -71 0 -6 5 -11 10 -11 6 0 10 -6 10 -14 0 -8 4 -16 9 -18 4 -2 58
-104 119 -228 95 -193 222 -423 242 -440 3 -3 25 -34 50 -70 45 -68 137 -185
180 -230 14 -15 37 -40 51 -56 66 -73 238 -226 309 -274 12 -8 32 -22 44 -31
73 -56 256 -155 366 -199 64 -26 230 -76 281 -84 19 -3 45 -8 59 -11 120 -24
390 -24 503 1 127 28 323 88 343 104 6 6 16 10 20 8 5 -1 26 6 48 15 21 9 45
17 52 17 8 0 14 5 14 10 0 6 4 10 9 10 11 0 184 81 191 89 3 3 19 13 35 21 17
8 32 17 35 20 9 9 44 30 68 40 12 5 22 14 22 20 0 5 4 9 8 8 4 -2 22 8 40 22
18 14 50 39 71 55 92 71 119 95 205 181 50 50 98 100 106 110 8 11 33 42 56
69 22 28 65 86 95 130 30 44 56 82 59 85 3 3 21 35 40 72 19 37 38 68 43 68 4
0 7 7 7 15 0 9 6 26 14 38 8 12 31 60 51 107 20 47 43 99 50 115 13 30 84 236
91 265 2 8 10 44 19 80 8 36 18 72 22 80 3 8 7 22 9 30 2 8 6 31 10 50 4 19 8
42 10 50 2 8 6 31 10 50 3 19 8 47 10 63 2 15 6 39 9 55 3 15 8 51 11 81 3 30
8 64 10 75 5 26 11 86 19 186 3 41 8 104 11 140 3 36 7 427 8 870 1 443 6 811
10 818 4 7 3 12 -1 12 -5 0 -8 25 -8 55 0 30 5 55 10 55 7 0 7 3 0 8 -12 8
-14 192 -2 192 5 0 5 5 1 12 -10 15 -9 151 0 167 4 6 4 11 -1 11 -9 0 -9 162
1 178 3 6 2 13 -4 17 -6 4 -8 10 -5 15 5 9 7 50 4 125 -1 17 0 33 1 38 4 18 2
85 -3 93 -3 6 -2 16 3 24 4 7 5 23 1 34 -3 12 -5 35 -4 51 4 36 5 176 3 190
-1 6 -1 21 0 35 1 14 3 34 4 45 1 20 8 20 1386 20 l1385 0 -1 -890 c-1 -779
-5 -1059 -18 -1195 -9 -96 -26 -233 -32 -265 -2 -10 -6 -37 -9 -60 -11 -76
-59 -300 -75 -345 -4 -14 -16 -52 -26 -85 -44 -151 -193 -485 -216 -485 -4 0
-8 -5 -8 -10 0 -9 -59 -104 -87 -140 -113 -144 -270 -300 -363 -360 -12 -8
-35 -25 -50 -37 -15 -13 -31 -23 -35 -23 -3 0 -21 -10 -38 -23 -39 -28 -277
-151 -277 -142 0 3 -10 -1 -23 -10 -13 -8 -27 -12 -30 -8 -4 3 -7 1 -7 -5 0
-7 -10 -12 -23 -12 -13 0 -28 -5 -35 -12 -7 -7 -12 -8 -12 -4 0 5 -6 4 -12 -2
-22 -18 -296 -92 -398 -108 -19 -3 -42 -7 -50 -9 -8 -3 -33 -7 -55 -10 -22 -4
-51 -8 -65 -11 -26 -4 -111 -14 -170 -19 -19 -2 -35 -4 -35 -5 0 -3 -119 -10
-228 -14 -59 -2 -110 -6 -113 -9 -3 -2 -20 -1 -39 3 -19 4 -36 5 -39 3 -3 -3
-31 -7 -63 -8 -32 -2 -61 -3 -64 -4 -11 -2 -6 -1231 5 -1232 63 -7 460 10 606
25 30 3 84 8 120 10 36 3 65 6 65 6 0 3 42 10 80 14 47 5 250 40 315 55 25 5
59 12 75 15 17 3 75 17 130 32 55 14 105 27 112 28 7 1 16 5 19 9 4 4 18 7 30
7 13 0 26 5 29 10 4 6 12 10 18 9 7 -1 19 0 27 3 8 3 69 25 135 49 66 24 122
44 125 44 6 1 35 15 199 92 134 63 270 139 359 200 35 23 65 43 67 43 6 0 168
121 180 134 6 6 30 27 55 46 52 41 157 138 209 194 20 22 55 59 78 82 22 24
51 57 63 75 13 17 34 43 47 57 50 54 205 284 275 407 36 63 148 296 148 307 0
6 7 19 16 29 8 9 16 26 17 38 1 11 4 21 7 21 4 0 7 6 7 13 1 6 15 48 33 92 17
44 33 87 35 95 2 8 8 26 13 40 5 14 11 30 12 35 3 14 6 24 21 70 7 22 14 45
15 50 9 35 14 56 28 107 8 31 17 67 20 80 2 12 7 30 10 38 3 8 8 32 11 54 3
21 7 41 9 45 3 4 7 27 10 52 3 25 7 52 10 60 3 7 7 32 10 54 2 22 7 47 10 55
4 14 11 64 21 160 3 19 7 51 9 70 13 81 20 180 33 405 3 66 7 806 7 1645 l1
1525 -2190 -3 c-1205 -2 -2386 -4 -2625 -5 l-435 -2 -3 -255 c-2 -140 -2 -264
-2 -275 1 -11 1 -24 1 -30 0 -5 -1 -58 -2 -116 -2 -58 0 -110 4 -116 4 -5 4
-13 1 -16 -4 -3 -8 -538 -10 -1189 -7 -1877 -12 -2357 -29 -2468 -3 -19 -7
-55 -9 -80 -3 -25 -7 -65 -10 -90 -6 -42 -8 -57 -22 -120 -3 -14 -7 -37 -9
-51 -2 -14 -11 -55 -20 -90 -9 -35 -18 -71 -20 -80 -2 -8 -11 -33 -20 -55 -9
-21 -16 -40 -16 -41 2 -16 -50 -136 -91 -210 -96 -176 -247 -313 -409 -373
-35 -13 -68 -26 -74 -30 -9 -7 -29 -12 -95 -28 -33 -7 -178 -8 -211 0 -67 16
-129 43 -191 84 -77 51 -184 155 -231 223 -17 26 -34 47 -39 49 -4 2 -8 8 -8
12 0 5 -11 26 -25 46 -23 34 -95 178 -140 279 -53 119 -164 328 -177 333 -4 2
-8 9 -8 15 0 7 -25 50 -55 95 -30 46 -55 88 -55 92 0 5 -3 10 -7 12 -5 2 -25
26 -45 53 -21 28 -41 55 -46 60 -5 6 -13 18 -18 26 -9 16 -86 110 -111 135 -7
7 -13 15 -13 17 0 13 -274 279 -344 335 -28 22 -29 23 -10 37 10 8 27 17 37
20 9 4 17 11 17 16 0 5 5 9 11 9 6 0 23 9 37 20 86 66 189 145 198 154 6 6 35
31 64 56 56 49 116 110 233 240 66 72 193 257 270 390 23 39 122 232 124 240
1 6 20 53 43 105 10 22 30 78 45 125 16 47 32 91 38 98 5 6 7 12 3 12 -3 0 -1
11 4 25 24 63 104 400 116 485 2 14 6 43 10 65 3 22 7 51 9 65 2 14 4 25 5 25
1 0 4 18 6 40 6 64 11 116 18 175 21 174 29 434 30 940 l1 485 -930 -2 c-512
-1 -1656 -3 -2542 -5 l-1613 -3 -1 -245 c0 -135 -2 -1089 -4 -2120 -2 -1031
-4 -1875 -4 -1875 -1 0 -4 -67 -6 -150 -8 -235 -15 -315 -42 -480 -8 -55 -19
-105 -24 -111 -5 -6 -7 -13 -4 -16 3 -2 -2 -31 -11 -64 -9 -32 -17 -63 -18
-69 -13 -52 -20 -73 -29 -90 -6 -11 -12 -25 -13 -32 -4 -25 -80 -170 -108
-208 -86 -114 -207 -201 -311 -225 -104 -24 -165 -31 -165 -18 0 5 -8 5 -17 0
-19 -9 -29 -9 -108 2 -122 17 -227 100 -279 221 -10 22 -22 48 -28 59 -5 10
-12 30 -14 45 -3 14 -8 35 -11 46 -4 11 -8 22 -8 25 -1 3 -5 16 -8 30 -14 54
-32 181 -42 310 -6 67 -7 1688 -2 4130 l2 875 -743 0 c-409 0 -745 -2 -747 -4z"/>
<path d="M18755 17691 c6 -342 6 -344 4 -363 -1 -15 10 -218 15 -268 6 -56 16
-130 30 -210 21 -121 30 -168 39 -190 3 -8 8 -28 12 -45 3 -16 17 -68 31 -114
15 -47 27 -89 29 -95 1 -6 6 -20 10 -31 4 -11 23 -59 41 -106 34 -90 144 -330
155 -339 3 -3 17 -25 29 -50 23 -45 99 -171 110 -180 3 -3 11 -17 19 -32 8
-15 21 -36 30 -46 9 -9 32 -40 50 -67 19 -28 37 -52 40 -55 4 -3 22 -25 41
-50 19 -25 44 -56 56 -70 94 -106 137 -152 187 -202 54 -53 57 -57 38 -67 -11
-6 -28 -12 -38 -14 -20 -4 -37 -11 -98 -37 -22 -10 -51 -21 -65 -25 -14 -4
-27 -11 -30 -14 -3 -4 -34 -20 -70 -35 -36 -16 -70 -33 -76 -37 -6 -5 -36 -22
-66 -38 -126 -68 -342 -220 -448 -315 -73 -67 -223 -220 -250 -256 -14 -18
-32 -40 -41 -49 -23 -23 -139 -186 -139 -195 0 -5 -11 -21 -25 -37 -58 -70
-232 -462 -260 -589 -2 -8 -8 -35 -15 -60 -6 -25 -12 -54 -14 -65 -2 -11 -8
-40 -14 -64 -6 -25 -9 -49 -6 -53 3 -4 2 -13 -2 -20 -4 -6 -8 -25 -9 -42 -2
-17 -6 -74 -10 -126 -10 -139 -6 -311 10 -415 4 -22 8 -52 11 -67 13 -86 39
-213 44 -213 1 0 3 -9 4 -20 4 -25 48 -157 83 -245 34 -88 144 -303 160 -313
7 -4 13 -14 13 -21 0 -11 114 -172 170 -240 51 -61 238 -242 310 -300 47 -37
93 -74 103 -82 9 -8 19 -14 22 -14 2 0 35 -20 72 -44 180 -116 474 -231 645
-252 24 -3 52 -7 63 -9 11 -2 38 -7 60 -11 85 -15 438 -8 535 10 14 3 41 7 60
10 31 5 78 14 160 32 160 34 379 107 575 192 124 54 427 213 520 272 17 11 49
30 73 42 23 12 42 26 42 30 0 4 4 8 8 8 5 0 59 34 121 75 62 41 115 75 117 75
2 0 27 16 54 35 27 19 52 35 54 35 2 0 35 19 72 42 94 56 155 90 244 135 41
21 77 41 78 45 2 5 8 8 14 8 6 0 51 19 102 41 313 142 520 171 751 106 67 -19
158 -90 198 -154 32 -53 70 -164 82 -243 4 -25 9 -54 11 -65 3 -11 5 -96 5
-190 l0 -170 619 0 620 0 1 1170 c1 1223 1 1231 14 1360 5 44 9 97 9 117 1 21
3 38 6 38 3 0 7 15 8 33 1 17 7 55 12 82 5 28 12 66 15 85 14 81 73 318 92
370 3 8 7 20 8 25 19 83 102 307 178 480 45 105 184 370 205 393 6 7 12 18 12
23 0 21 256 383 314 445 6 6 43 46 81 89 39 43 79 86 91 97 11 10 49 45 83 78
34 32 84 75 111 96 28 21 50 42 50 46 0 4 6 8 14 8 8 0 16 4 18 8 6 16 224
159 281 184 15 7 27 16 27 20 0 4 5 8 12 8 10 0 123 51 180 81 10 5 25 9 33 9
8 0 15 4 15 8 0 5 6 9 13 9 6 1 47 12 89 27 42 14 87 28 100 30 13 3 50 12 83
21 63 15 109 24 160 30 71 9 173 18 210 19 l40 1 1 -607 c1 -334 5 -611 9
-617 3 -6 3 -11 -2 -11 -4 0 -7 -73 -5 -162 2 -90 3 -170 3 -178 0 -8 0 -244
0 -525 0 -280 0 -557 0 -615 0 -58 0 -109 -1 -115 -2 -5 -1 -14 0 -20 1 -5 3
-591 3 -1302 1 -710 6 -1295 10 -1299 8 -8 1176 -12 1178 -4 2 8 8 2347 11
4625 l3 2070 -550 -2 c-546 -2 -795 -7 -897 -18 -92 -10 -122 -14 -148 -19
-14 -3 -45 -7 -70 -10 -25 -2 -65 -9 -90 -15 -25 -5 -57 -12 -73 -15 -15 -2
-35 -7 -45 -10 -9 -3 -28 -7 -42 -10 -93 -17 -383 -112 -452 -147 -21 -11 -38
-17 -38 -14 0 3 -10 0 -22 -7 -13 -7 -26 -11 -30 -10 -5 1 -8 -3 -8 -10 0 -6
-3 -9 -6 -5 -3 3 -49 -16 -102 -43 -54 -26 -101 -49 -107 -50 -5 -1 -22 -11
-37 -21 -14 -10 -30 -19 -35 -19 -5 0 -15 -6 -21 -12 -7 -7 -16 -13 -20 -14
-15 -1 -62 -28 -62 -34 0 -4 -8 -10 -17 -14 -21 -6 -28 -11 -153 -95 -92 -62
-274 -199 -334 -251 -86 -75 -163 -147 -272 -257 -67 -68 -123 -123 -125 -123
-2 0 -4 293 -3 650 l0 650 -618 0 c-582 0 -618 -1 -619 -17 0 -10 -1 -1079 -1
-2375 l-1 -2358 -26 5 c-14 3 -41 8 -60 11 -18 3 -43 8 -55 10 -133 27 -423
22 -586 -11 -19 -4 -48 -9 -65 -11 -16 -1 -75 -14 -130 -29 -55 -14 -109 -27
-120 -30 -18 -4 -32 -9 -90 -31 -11 -4 -26 -8 -33 -10 -8 -1 -21 -6 -30 -10
-9 -4 -19 -8 -22 -8 -27 -6 -137 -52 -142 -60 -4 -6 -8 -8 -8 -4 0 6 -22 -2
-140 -54 -106 -47 -383 -189 -565 -288 -106 -58 -189 -103 -220 -118 -16 -8
-42 -24 -57 -34 -16 -11 -28 -16 -28 -11 0 4 -4 3 -8 -2 -4 -6 -47 -31 -97
-56 -49 -26 -117 -61 -150 -78 -33 -17 -65 -31 -72 -31 -7 0 -13 -4 -13 -10 0
-5 -4 -10 -9 -10 -8 0 -48 -17 -206 -90 -102 -47 -273 -109 -410 -149 -235
-68 -465 -75 -615 -19 -86 32 -190 116 -276 223 -51 62 -124 186 -124 208 0 9
-4 17 -10 17 -5 0 -10 9 -10 21 0 11 -5 29 -11 40 -11 22 -17 45 -26 99 -3 19
-9 42 -13 50 -9 17 -6 235 4 295 8 48 40 157 61 208 8 20 15 39 15 42 -1 16
105 188 147 237 31 37 145 150 189 188 51 43 125 92 194 127 19 10 37 21 38
26 2 4 7 7 12 7 4 0 39 14 77 32 37 17 73 32 78 33 6 2 64 21 131 43 114 39
244 75 308 86 16 3 52 10 80 16 84 17 99 20 147 25 25 3 54 7 65 9 59 11 198
25 314 31 41 2 75 5 75 5 0 7 304 13 653 14 l432 1 -2 614 -3 615 -85 2 c-275
6 -506 44 -760 125 -52 17 -107 37 -122 45 -16 8 -28 12 -28 9 0 -4 -12 0 -27
9 -33 17 -126 60 -133 61 -12 1 -187 99 -202 113 -10 8 -18 11 -18 7 0 -5 -10
1 -22 12 -13 11 -45 34 -73 51 -27 17 -57 37 -65 44 -8 7 -41 35 -75 61 -118
94 -252 235 -341 357 -66 90 -160 246 -169 280 -2 8 -46 103 -57 124 -6 11
-12 32 -15 47 l-4 27 1268 1 c697 0 1275 1 1285 1 15 0 16 50 16 619 l1 618
-1960 0 -1959 1 5 -327z"/>
</g>
</svg>
