<?xml version="1.0" encoding="utf-8"?>
<!-- Generator: Adobe Illustrator 21.1.0, SVG Export Plug-In . SVG Version: 6.00 Build 0)  -->
<svg version="1.1" id="Layer_1" xmlns="http://www.w3.org/2000/svg" xmlns:xlink="http://www.w3.org/1999/xlink" x="0px" y="0px"
	 viewBox="0 0 239.4 109.3" style="enable-background:new 0 0 239.4 109.3;" xml:space="preserve">
<path id="i0" d="M108.5,57.1c0.1,10.2-3.4,11.6-5.3,12.3c-4.3,1.5-6.6-4.5-6.6-4.6c-1.8-4-4.2-6.8-6.7-8.7
	c8.1-4.8,9.5-13.4,9.5-21.2V30L64.6,30l-0.1,28.9c-0.1,3.8-0.3,10.8-5.4,10.8c-1.5,0-3.9,0-3.9-7.2l0.1-32.8h-7.9
	c-17.8,0-26.8,8.9-26.8,26.6V76h8.1V56.3c0-13.1,5.4-18.5,18.7-18.6v14.4H33.1v8.1h14.2v2.2c0,11.2,5.6,15.2,11.9,15.2
	c9.6,0,13.1-8.9,13.4-17.7v-8.1L72.7,38h18.6c-0.6,8.2-3.7,12.8-14.7,13.7v8.1c0.4-0.1,1.2,0,1.2,0c0.1,0,7.7-0.3,11.4,8.2
	c1.9,4.3,6.2,9.6,12.6,9.6c1.3,0,2.1-0.2,3.4-0.7c7.4-2.5,11.2-9,11.3-19.2V57v-0.3l0.1-18.8h19.8v11.4c0,13.3-5.6,19.1-18.8,19.1
	v8.1c17.6,0,26.8-9.4,26.8-27V29.7l-35.9,0.1L108.5,57.1z"/>
<path id="i1" d="M211.3,30.7h-0.1c-7.6,0-13.9,3.6-18.6,9v-9.6h-8.1v33.1c-1.7-0.5-3.6-0.6-6.2-0.1c-3.8,0.8-6.8,2.7-10.9,4.9
	c-9,4.9-11.2,3-12.3,1.8c-1.7-1.7-2.3-3.9-1.8-6.2c0.6-2.7,2.7-4.9,5.7-6.1c3.8-1.4,7.2-1.7,13.9-1.7c0.4,0,0.7,0.1,1.1,0.1h0.1v-8
	h-0.1c-6.6,0-13.4-3.7-15.3-10.1h18v-8.1h-26.7c0,0,0.1,4,0.1,4.2c0,6.2,2.7,11.8,7.1,15.8c-0.3,0.1-0.7,0.2-1.1,0.3
	c-5.6,2.1-9.6,6.5-10.7,11.8c-1.1,4.9,0.4,10,3.9,13.6c2.1,2.1,5.2,4,9.3,4c3.5,0,7.8-1.3,13.1-4.8c2.7-1.8,5.3-3.1,7.2-3.6
	c1.6-0.4,3.4-0.1,4.2,0.7c0.4,0.4,1,1.1,1.2,3.2v1.9h8.1v-0.3V61.5c0-9.3,6.6-22.7,18.4-22.8l0.1,37.9h7.7l0.1-46
	C218.8,30.7,215.5,30.6,211.3,30.7L211.3,30.7z"/>
</svg>
